:SAMPLES-PER-SECOND 30
:FULLY-SPECIFIED
:DEGREES
74
root  34.68510185 36.48926742 -14.99383881 8.383013725 -7.781763077 3.913553953
lowerback  -7.241869926 -1.815569997 -1.106250167
upperback  -4.122529984 -1.934190035 -3.059010029
thorax  -0.2649849951 -0.8114650249 -2.664309978
lowerneck  0.8534870148 -18.06819916 -13.27009964
upperneck  4.989019871 -24.85379982 12.35509968
head  4.531159878 -12.27260017 4.150489807
lclavicle  0 -4.497500157e-015 -2.743230041e-014
lhumerus  -50.04140091 27.50180054 64.01869965
lradius  5.228657756e-007 -6.507048965e-006 30.87070084
lwrist  4.824992743e-007 -3.790274832e-007 -26.82029915
lhand  -4.415889985e-031 -36.90420151 -10.68029976
lfingers  90 7.125020027 -90
lthumb  94.81915335 -25.51588605 101.0739958
rclavicle  0 -4.497500157e-015 -2.743230041e-014
rhumerus  -55.93259811 -23.60059929 -34.15729904
rradius  -5.16745672e-007 2.214343908e-008 104.9440002
rwrist  -0.0001064338358 0.02559507266 -172.6660004
rhand  -1.76701974e-031 2.327069998 -7.994709969
rfingers  -90 -7.125020027 -90
rthumb  -85.75183725 -7.991852792 -61.88580688
rfemur  -13.32385349 17.16265869 12.62577438
rtibia  -1.639664054 -1.703368902 21.80657387
rfoot  0.01397232153 -23.20477676 -35.05838013
rtoes  4.163994598 19.57911119 -102.2572719
lfemur  -8.57866478 -16.58401489 -20.50781822
ltibia  2.123674631 -1.916793585 15.5810051
lfoot  1.067235351 -22.0228672 38.78152466
ltoes  -8.567530048 -18.14029234 -115.8218057
75
root  34.68706627 36.4898141 -14.99224235 8.398073196 -7.82796669 3.91684413
lowerback  -7.228809834 -1.829900146 -1.122850418
upperback  -4.12405014 -1.952509999 -3.062750101
thorax  -0.2740319967 -0.8203340173 -2.65967989
lowerneck  0.9795640111 -18.1140995 -13.29800034
upperneck  4.865849972 -24.92499924 12.43229961
head  4.495900154 -12.31280041 4.182549953
lclavicle  0 -4.497500157e-015 -2.743230041e-014
lhumerus  -50.04349899 27.60490036 63.93600082
lradius  5.228657756e-007 -6.507048965e-006 30.82690239
lwrist  4.824992743e-007 -3.790274832e-007 -26.91519928
lhand  -4.415334415e-031 -36.89459991 -10.69569969
lfingers  90 7.125020027 -90
lthumb  94.81795781 -25.53138087 101.0651898
rclavicle  0 -4.497500157e-015 -2.743230041e-014
rhumerus  -55.31689835 -23.72780037 -32.78910065
rradius  -5.16745672e-007 2.214343908e-008 105.7429962
rwrist  -0.0001064338358 0.02568703331 -172.9329987
rhand  -1.766973208e-031 2.28963995 -7.897699833
rfingers  -90 -7.125020027 -90
rthumb  -85.71348002 -8.074961342 -61.91569796
rfemur  -13.3579874 17.18641472 12.60644436
rtibia  -1.637395978 -1.698853493 21.82601738
rfoot  0.01529165544 -23.19654083 -35.02786636
rtoes  4.139797998 19.58404893 -102.1850753
lfemur  -8.603752136 -16.53817558 -20.51484108
ltibia  2.116994619 -1.926394105 15.59562206
lfoot  1.067977667 -22.00943947 38.75559998
ltoes  -8.547081499 -18.14968136 -115.756144
76
root  34.68940014 36.4902226 -14.98989496 8.406271935 -7.883639812 3.927322626
lowerback  -7.215459824 -1.840839982 -1.140259624
upperback  -4.12996006 -1.965690017 -3.071549892
thorax  -0.2877219915 -0.826390028 -2.659430027
lowerneck  1.094130039 -18.15159988 -13.28419971
upperneck  4.747700214 -24.98209953 12.49139977
head  4.454899788 -12.34529972 4.206110001
lclavicle  0 -4.497500157e-015 -2.743230041e-014
lhumerus  -49.99259949 27.43589973 63.96080017
lradius  5.228657756e-007 -6.507048965e-006 30.83099937
lwrist  4.824992743e-007 -3.790274832e-007 -26.74200058
lhand  -4.418073762e-031 -36.94189835 -10.58399963
lfingers  90 7.125020027 -90
lthumb  94.81628686 -25.42009557 101.1054926
rclavicle  0 -4.497500157e-015 -2.743230041e-014
rhumerus  -54.82939911 -23.98139954 -31.39929962
rradius  -5.16745672e-007 2.214343908e-008 106.6279984
rwrist  -0.0001064338358 0.02577891387 -173.2910004
rhand  -1.767278639e-031 2.525190115 -8.21088028
rfingers  -90 -7.125020027 -90
rthumb  -85.81407826 -7.814535013 -61.70727191
rfemur  -13.39336014 17.19616127 12.59149456
rtibia  -1.635893583 -1.701455832 21.85593224
rfoot  0.0098591391 -23.2005043 -34.99610901
rtoes  4.13326857 19.5853762 -102.1655961
lfemur  -8.59526062 -16.56951714 -20.54760933
ltibia  2.127079964 -1.961711645 15.57932758
lfoot  1.067334414 -21.93154526 38.78864288
ltoes  -8.534047592 -18.15565134 -115.7143083
77
root  34.69152676 36.49080231 -14.98762266 8.412750244 -7.936001301 3.921801329
lowerback  -7.250420094 -1.862509966 -1.213480115
upperback  -4.111090183 -1.989030004 -3.063560009
thorax  -0.246814996 -0.8368780017 -2.612950087
lowerneck  1.167449951 -18.19099998 -13.24600029
upperneck  4.638700008 -25.03490257 12.50290012
head  4.413320065 -12.37530041 4.210589886
lclavicle  0 -4.497500157e-015 -2.743230041e-014
lhumerus  -49.96139908 27.36230087 64.00800323
lradius  5.228657756e-007 -6.507048965e-006 30.89510155
lwrist  4.824992743e-007 -3.790274832e-007 -26.66889954
lhand  -4.41882207e-031 -36.95479965 -10.59980011
lfingers  90 7.125020027 -90
lthumb  94.82563991 -25.43504802 101.1206674
rclavicle  0 -4.497500157e-015 -2.743230041e-014
rhumerus  -54.39310074 -24.31410027 -29.94380188
rradius  -5.16745672e-007 2.214343908e-008 107.387001
rwrist  -0.0001064338358 0.02587071806 -173.9530029
rhand  -3.535098273e-031 2.716749907 -8.05976963
rfingers  -90 -7.125020027 -90
rthumb  -85.70183371 -7.960304467 -61.51090001
rfemur  -13.4028635 17.20062256 12.56687737
rtibia  -1.634706855 -1.703921318 21.83825111
rfoot  0.03227902204 -23.19233131 -34.93862152
rtoes  4.135504555 19.58492193 -102.1722665
lfemur  -8.59154892 -16.51535416 -20.54867172
ltibia  2.123756886 -1.958572507 15.57108498
lfoot  1.06585753 -21.93196487 38.79736328
ltoes  -8.548507898 -18.14902733 -115.7607232
78
root  34.6929385 36.49108767 -14.98519417 8.408577919 -7.972083092 3.93325448
lowerback  -7.15182972 -1.891909957 -1.296530366
upperback  -4.174339771 -2.02579999 -3.026070118
thorax  -0.3634490073 -0.8524519801 -2.526119947
lowerneck  1.240560055 -18.26779938 -13.33269978
upperneck  4.68475008 -25.1502018 12.49489975
head  4.43956995 -12.43560028 4.206999779
lclavicle  0 -4.497500157e-015 -2.743230041e-014
lhumerus  -50.07130051 27.53219986 63.89260101
lradius  5.228657756e-007 -6.507048965e-006 30.86000061
lwrist  4.824992743e-007 -3.790274832e-007 -26.94179916
lhand  -4.417146452e-031 -36.92589951 -10.65839958
lfingers  90 7.125020027 -90
lthumb  94.82462761 -25.49362004 101.0951321
rclavicle  0 -4.497500157e-015 -2.743230041e-014
rhumerus  -53.76100159 -24.39699936 -28.55139923
rradius  -5.16745672e-007 2.214343908e-008 108.0429993
rwrist  -0.0001064338358 0.0259624552 -174.1880035
rhand  -1.767719639e-031 2.830820084 -7.771259785
rfingers  -90 -7.125020027 -90
rthumb  -85.53835829 -8.22128555 -61.38029063
rfemur  -13.41903782 17.26312065 12.55410004
rtibia  -1.63376689 -1.698858023 21.8640213
rfoot  0.02088613808 -23.18401909 -34.95874786
rtoes  4.154345328 19.58108392 -102.2284788
lfemur  -8.553580284 -16.49009323 -20.58478928
ltibia  2.15307188 -1.964733124 15.52656937
lfoot  1.064098835 -21.9022522 38.81384277
ltoes  -8.537614544 -18.15401868 -115.7257561
